HIERARCHY
ROOT Hips
{
	OFFSET 0.000000 0.000000 0.000000
	CHANNELS 6 Xposition Yposition Zposition Zrotation Yrotation Xrotation 
	JOINT LowerBack
	{
		OFFSET 0.000000 0.000000 0.000000
		CHANNELS 3 Zrotation Yrotation Xrotation
		JOINT Spine
		{
			OFFSET 0.028270 2.035590 -0.193380
			CHANNELS 3 Zrotation Yrotation Xrotation
			JOINT Spine1
			{
				OFFSET 0.056720 2.048850 -0.042750
				CHANNELS 3 Zrotation Yrotation Xrotation
				JOINT Neck
				{
					OFFSET 0.000000 0.000000 0.000000
					CHANNELS 3 Zrotation Yrotation Xrotation
					JOINT Neck1
					{
						OFFSET -0.054170 1.746240 0.172020
						CHANNELS 3 Zrotation Yrotation Xrotation
						JOINT Head
						{
							OFFSET 0.104070 1.761360 -0.123970
							CHANNELS 3 Zrotation Yrotation Xrotation
							End Site
							{
								OFFSET 0.000000 0.000000 0.000000
							}
						}
					}
				}
				JOINT LeftShoulder
				{
					OFFSET 0.000000 0.000000 0.000000
					CHANNELS 3 Zrotation Yrotation Xrotation
					JOINT LeftArm
					{
						OFFSET 3.362410 1.200890 -0.311210
						CHANNELS 3 Zrotation Yrotation Xrotation
						JOINT LeftForeArm
						{
							OFFSET 4.983000 -0.000000 -0.000000
							CHANNELS 3 Zrotation Yrotation Xrotation
							JOINT LeftHand
							{
								OFFSET 3.483560 -0.000000 -0.000000
								CHANNELS 3 Zrotation Yrotation Xrotation
								JOINT LeftFingerBase
								{
									OFFSET 0.000000 0.000000 0.000000
									CHANNELS 3 Zrotation Yrotation Xrotation
									JOINT LeftHandIndex1
									{
										OFFSET 0.715260 -0.000000 -0.000000
										CHANNELS 3 Zrotation Yrotation Xrotation
										End Site
										{
											OFFSET 0.000000 0.000000 0.000000
										}
									}
								}
								JOINT LThumb
								{
									OFFSET 0.000000 0.000000 0.000000
									CHANNELS 3 Zrotation Yrotation Xrotation
									End Site
									{
										OFFSET 0.000000 0.000000 0.000000
									}
								}
							}
						}
					}
				}
				JOINT RightShoulder
				{
					OFFSET 0.000000 0.000000 0.000000
					CHANNELS 3 Zrotation Yrotation Xrotation
					JOINT RightArm
					{
						OFFSET -3.136600 1.374050 -0.404650
						CHANNELS 3 Zrotation Yrotation Xrotation
						JOINT RightForeArm
						{
							OFFSET -5.241900 -0.000000 -0.000000
							CHANNELS 3 Zrotation Yrotation Xrotation
							JOINT RightHand
							{
								OFFSET -3.444170 -0.000000 -0.000000
								CHANNELS 3 Zrotation Yrotation Xrotation
								JOINT RightFingerBase
								{
									OFFSET 0.000000 0.000000 0.000000
									CHANNELS 3 Zrotation Yrotation Xrotation
									JOINT RightHandIndex1
									{
										OFFSET -0.622530 -0.000000 -0.000000
										CHANNELS 3 Zrotation Yrotation Xrotation
										End Site
										{
											OFFSET 0.000000 0.000000 0.000000
										}
									}
								}
								JOINT RThumb
								{
									OFFSET 0.000000 0.000000 0.000000
									CHANNELS 3 Zrotation Yrotation Xrotation
									End Site
									{
										OFFSET 0.000000 0.000000 0.000000
									}
								}
							}
						}
					}
				}
			}
		}
	}
}
}
MOTION
Frames: 12
Frame Time: 0.008333
-1.470845 16.673551 0.081145 -1.419968 79.460996 11.858652 -0.197781 -0.516878 -3.990212 -0.956615 -0.704287 -4.552398 -6.709480 -0.919783 -2.990112 9.725107 1.522567 -5.388052 -4.390150 -0.363582 0.567898 0.000000 0.000000 0.000000 -5.288786 1.639758 4.900926 -73.887429 19.392523 14.601528 -4.182954 -6.258718 -0.020471 -3.008002 11.601786 -0.296864 -0.095401 -0.014921 -0.000000 0.000000 0.000000 0.000000 0.000000 0.000000 0.000000 18.493781 8.650413 1.110662 77.553270 34.431422 33.927254 1.757097 35.187280 0.002512 -0.962314 11.146127 -0.098583 0.030018 -0.333027 -0.000000 0.000000 0.000000 0.000000 0.000000 0.000000 0.000000 
-1.304801 16.763373 0.130195 1.890220 79.696153 15.252791 -1.196123 -0.434302 -4.213891 -1.141301 -0.545701 -4.579608 -6.644220 -0.758280 -2.945867 9.566199 1.017441 -5.508911 -4.267946 -0.354588 0.539014 0.000000 0.000000 0.000000 -5.286505 2.291384 4.815764 -72.980970 21.406684 17.177860 -4.129044 -8.429691 -0.019396 -2.536744 11.057686 -0.237977 -0.090845 -0.032838 -0.000000 0.000000 0.000000 0.000000 0.000000 0.000000 0.000000 17.893824 8.344094 0.949864 77.786502 35.953818 35.622280 1.683630 37.588935 0.002933 -0.687392 10.635811 -0.067376 0.025767 -0.342122 -0.000000 0.000000 0.000000 0.000000 0.000000 0.000000 0.000000 
-1.136214 16.848387 0.179154 5.173349 79.952571 18.592970 -2.155077 -0.357069 -4.422078 -1.318782 -0.393682 -4.603848 -6.579514 -0.602889 -2.901497 9.404862 0.547878 -5.599733 -4.140123 -0.345279 0.518357 0.000000 0.000000 0.000000 -5.254878 2.950739 4.709466 -71.951997 23.329812 19.555048 -4.049058 -10.497904 -0.017345 -1.786996 10.331467 -0.155084 -0.084990 -0.050305 -0.000000 0.000000 0.000000 0.000000 0.000000 0.000000 0.000000 17.255738 8.038164 0.791012 77.923307 37.418698 36.993623 1.615610 39.979573 0.003483 -0.392946 10.048897 -0.036480 0.020844 -0.349619 -0.000000 0.000000 0.000000 0.000000 0.000000 0.000000 0.000000 
-0.965401 16.927674 0.226936 8.264269 80.200543 21.717627 -3.041635 -0.275183 -4.612199 -1.482863 -0.241255 -4.625859 -6.512850 -0.446515 -2.859560 9.231258 0.121155 -5.660327 -4.007049 -0.335720 0.506133 0.000000 0.000000 0.000000 -5.205478 3.611007 4.583702 -70.832084 25.176198 21.666673 -3.958444 -12.455953 -0.014480 -0.884623 9.422480 -0.067285 -0.078742 -0.067329 -0.000000 0.000000 0.000000 0.000000 0.000000 0.000000 0.000000 16.569110 7.746110 0.636580 77.954879 38.846391 38.098316 1.553089 42.340940 0.004097 -0.110654 9.447759 -0.009691 0.015766 -0.356045 -0.000000 0.000000 0.000000 0.000000 0.000000 0.000000 0.000000 
-0.792724 17.000359 0.272409 10.992971 80.410837 24.459975 -3.830789 -0.177686 -4.783767 -1.628614 -0.079903 -4.646671 -6.440181 -0.280616 -2.821289 9.032593 -0.246956 -5.692891 -3.868315 -0.325875 0.501877 0.000000 0.000000 0.000000 -5.148094 4.283616 4.441952 -69.650021 26.941735 23.482819 -3.870813 -14.296519 -0.011075 0.045311 8.343769 0.008318 -0.072920 -0.083843 -0.000000 0.000000 0.000000 0.000000 0.000000 0.000000 0.000000 15.814794 7.492091 0.486464 77.871711 40.239886 38.948771 1.494790 44.674385 0.004746 0.151106 8.873175 0.012492 0.010655 -0.361925 -0.000000 0.000000 0.000000 0.000000 0.000000 0.000000 0.000000 
-0.618480 17.065758 0.314250 13.177873 80.559195 26.645990 -4.500455 -0.055324 -4.942776 -1.751402 0.097330 -4.668206 -6.357661 -0.098389 -2.786501 8.796243 -0.544282 -5.701861 -3.723578 -0.315694 0.504638 0.000000 0.000000 0.000000 -5.099083 4.981909 4.287935 -68.432706 28.626170 24.969077 -3.797787 -16.020405 -0.007474 0.889092 7.126459 0.060124 -0.068193 -0.099714 -0.000000 0.000000 0.000000 0.000000 0.000000 0.000000 0.000000 14.975440 7.294987 0.339881 77.666711 41.605342 39.564022 1.439273 46.974817 0.005383 0.382984 8.368552 0.029977 0.005654 -0.367847 -0.000000 0.000000 0.000000 0.000000 0.000000 0.000000 0.000000 
-0.443225 17.123417 0.351678 14.784319 80.638549 28.237558 -5.053506 0.094178 -5.084490 -1.851676 0.292680 -4.689105 -6.265060 0.102278 -2.752011 8.523048 -0.793866 -5.696999 -3.575417 -0.305296 0.511751 0.000000 0.000000 0.000000 -5.079037 5.695843 4.123531 -67.193050 30.246810 26.093679 -3.749163 -17.654383 -0.004052 1.548802 5.827382 0.083530 -0.065020 -0.114814 -0.000000 0.000000 0.000000 0.000000 0.000000 0.000000 0.000000 14.071630 7.135585 0.202672 77.324279 42.987125 40.017775 1.386411 49.223089 0.005895 0.558524 7.969036 0.041762 0.001309 -0.374265 -0.000000 0.000000 0.000000 0.000000 0.000000 0.000000 0.000000 
-0.267312 17.173043 0.383945 15.760032 80.648118 29.185025 -5.485652 0.270322 -5.210427 -1.927829 0.505071 -4.708827 -6.160223 0.320123 -2.713894 8.208863 -0.993512 -5.686587 -3.424539 -0.294638 0.520981 0.000000 0.000000 0.000000 -5.098682 6.442921 3.953230 -65.946802 31.790611 26.873037 -3.729943 -19.199717 -0.001178 1.947490 4.517107 0.081334 -0.063666 -0.128884 -0.000000 0.000000 0.000000 0.000000 0.000000 0.000000 0.000000 13.103625 7.018522 0.073572 76.838203 44.396034 40.323139 1.334236 51.408937 0.006219 0.676207 7.698222 0.049050 -0.002401 -0.381582 -0.000000 0.000000 0.000000 0.000000 0.000000 0.000000 0.000000 
-0.090932 17.214426 0.410533 16.066584 80.593652 29.459650 -5.790509 0.472424 -5.329366 -1.978097 0.732989 -4.728999 -6.043077 0.553259 -2.672393 7.851649 -1.133291 -5.673759 -3.271750 -0.283757 0.531573 0.000000 0.000000 0.000000 -5.169146 7.221327 3.781470 -64.712149 33.265080 27.292210 -3.744426 -20.658396 0.000802 2.030396 3.280814 0.062335 -0.064286 -0.141657 -0.000000 0.000000 0.000000 0.000000 0.000000 0.000000 0.000000 12.072773 6.953788 -0.047650 76.195721 45.819389 40.460091 1.279999 53.540029 0.006365 0.752433 7.546495 0.053641 -0.005876 -0.389912 -0.000000 0.000000 0.000000 0.000000 0.000000 0.000000 0.000000 
0.085353 17.247602 0.431700 15.825378 80.486760 29.171692 -5.985805 0.692970 -5.427284 -2.005538 0.970419 -4.744088 -5.914846 0.795764 -2.618805 7.462558 -1.241012 -5.671618 -3.119836 -0.272699 0.539500 0.000000 0.000000 0.000000 -5.285742 8.039682 3.611606 -63.497495 34.646501 27.416308 -3.789243 -22.030689 0.001639 1.781211 2.209347 0.037830 -0.066658 -0.152898 -0.000000 0.000000 0.000000 0.000000 0.000000 0.000000 0.000000 11.013034 6.913970 -0.158675 75.390087 47.297459 40.478132 1.223026 55.589939 0.006250 0.779307 7.515246 0.055634 -0.009013 -0.399264 -0.000000 0.000000 0.000000 0.000000 0.000000 0.000000 0.000000 
0.261369 17.272660 0.447669 15.067950 80.335168 28.360273 -6.073823 0.928829 -5.510745 -2.010479 1.214170 -4.754827 -5.777923 1.044154 -2.553448 7.047807 -1.314609 -5.681807 -2.970341 -0.261569 0.544222 0.000000 0.000000 0.000000 -5.448193 8.885110 3.446894 -62.323513 35.943621 27.242643 -3.862691 -23.308727 0.001153 1.208222 1.384376 0.017017 -0.070565 -0.162446 -0.000000 0.000000 0.000000 0.000000 0.000000 0.000000 0.000000 9.939784 6.899434 -0.258064 74.408593 48.820653 40.360858 1.161233 57.557996 0.005878 0.770828 7.577735 0.055724 -0.012216 -0.409478 -0.000000 0.000000 0.000000 0.000000 0.000000 0.000000 0.000000 
0.436832 17.289806 0.459034 13.894129 80.148100 27.124601 -6.067385 1.174497 -5.576708 -1.995453 1.459688 -4.759964 -5.635734 1.293732 -2.476934 6.617882 -1.363581 -5.706249 -2.825381 -0.250513 0.544942 0.000000 0.000000 0.000000 -5.654095 9.736955 3.289036 -61.205907 37.168819 26.787313 -3.960221 -24.489412 -0.000707 0.353373 0.870805 0.003596 -0.075634 -0.170301 -0.000000 0.000000 0.000000 0.000000 0.000000 0.000000 0.000000 8.878271 6.898504 -0.342599 73.241988 50.393213 40.110235 1.093675 59.430627 0.005231 0.734921 7.708687 0.054413 -0.015762 -0.420330 -0.000000 0.000000 0.000000 0.000000 0.000000 0.000000 0.000000 
